<?xml version="1.0" standalone="no"?>
<!DOCTYPE svg PUBLIC "-//W3C//DTD SVG 20010904//EN"
 "http://www.w3.org/TR/2001/REC-SVG-20010904/DTD/svg10.dtd">
<svg version="1.0" xmlns="http://www.w3.org/2000/svg"
 width="606.000000pt" height="606.000000pt" viewBox="0 0 606.000000 606.000000"
 preserveAspectRatio="xMidYMid meet">

<g transform="translate(0.000000,606.000000) scale(0.100000,-0.100000)"
fill="#000000" stroke="none">
<path d="M2785 6020 c-268 -22 -475 -68 -760 -167 -126 -43 -152 -54 -315
-130 -159 -73 -371 -207 -528 -332 -633 -507 -1017 -1180 -1128 -1981 -22
-159 -25 -566 -5 -720 90 -699 379 -1296 862 -1779 235 -235 524 -444 783
-566 179 -85 211 -98 385 -156 349 -116 577 -153 951 -153 374 0 602 37 950
153 350 117 631 267 901 483 641 511 1018 1184 1131 2018 17 125 17 555 0 680
-49 360 -136 659 -279 961 -256 538 -703 1014 -1235 1316 -298 169 -738 314
-1083 359 -137 17 -496 26 -630 14z m625 -94 c656 -87 1253 -390 1720 -873
436 -451 692 -974 793 -1623 17 -112 21 -180 21 -400 0 -220 -4 -288 -21 -400
-83 -532 -259 -954 -571 -1369 -106 -142 -369 -409 -512 -521 -433 -339 -946
-548 -1500 -611 -155 -18 -519 -15 -674 5 -673 86 -1263 383 -1736 873 -436
451 -692 974 -793 1623 -17 112 -21 180 -21 400 0 286 12 402 69 654 226 1009
1010 1848 2000 2140 224 66 373 93 660 120 80 8 462 -5 565 -18z"/>
<path d="M2650 5623 c-19 -3 -43 -12 -54 -21 -24 -23 -56 -86 -56 -113 0 -14
34 -57 93 -118 81 -85 94 -104 110 -158 10 -34 24 -67 32 -73 8 -7 15 -21 15
-31 0 -10 4 -20 9 -23 4 -3 11 -30 15 -61 3 -31 10 -63 15 -73 5 -9 12 -25 15
-34 3 -10 11 -15 19 -12 8 3 25 -12 43 -38 70 -103 153 -133 125 -46 -21 66
-63 214 -76 268 -7 30 -23 80 -35 110 -12 30 -33 84 -46 120 -14 36 -28 74
-33 85 -5 11 -21 46 -35 77 -14 31 -26 59 -26 62 0 17 -70 87 -84 84 -6 0 -27
-3 -46 -5z"/>
<path d="M3672 3143 c-12 -2 -20 -9 -17 -14 4 -5 0 -10 -7 -11 -7 0 -17 -2
-23 -3 -5 -2 -20 -3 -33 -4 -13 0 -37 -14 -53 -31 -26 -26 -29 -34 -23 -66 9
-51 32 -74 71 -74 17 0 44 -5 59 -10 23 -9 31 -7 54 15 23 22 29 38 34 98 4
40 9 80 12 90 6 18 -17 21 -74 10z"/>
<path d="M3120 2689 c-171 -10 -270 -33 -298 -71 -7 -10 -20 -18 -28 -18 -8 0
-14 -7 -14 -15 0 -8 -9 -15 -19 -15 -24 0 -53 -67 -40 -92 5 -9 9 -26 9 -38 0
-11 7 -34 15 -49 12 -25 22 -30 70 -36 62 -7 85 3 85 39 0 22 19 82 33 103 11
17 116 45 145 38 22 -5 23 -9 17 -42 -3 -20 -17 -51 -31 -68 -19 -25 -24 -44
-24 -88 0 -66 16 -81 90 -79 25 0 62 -3 83 -8 31 -7 55 -3 125 21 96 33 118
35 125 15 6 -16 -25 -47 -65 -64 -18 -7 -28 -19 -28 -32 0 -11 -6 -20 -12 -20
-33 -1 21 -20 57 -21 22 0 48 -4 59 -8 19 -7 67 -2 175 20 97 20 146 80 107
132 -9 12 -15 14 -18 6 -3 -9 -9 -9 -25 0 -23 11 -42 88 -28 110 8 15 -31 78
-57 92 -11 6 -26 8 -33 5 -16 -6 -39 19 -31 33 4 5 -4 11 -16 13 -14 2 -22 9
-20 18 5 21 -27 40 -69 40 -21 0 -41 5 -44 10 -3 6 -14 10 -24 10 -10 0 -21 8
-23 18 -6 22 -67 53 -100 50 -12 0 -79 -5 -148 -9z"/>
<path d="M1682 2622 c-30 -28 -33 -36 -30 -79 3 -45 5 -48 28 -45 14 1 42 22
66 47 35 39 46 45 81 45 29 0 46 -6 62 -24 l23 -25 -27 -35 c-22 -29 -26 -42
-21 -70 8 -43 34 -53 76 -31 25 13 38 14 61 6 19 -7 39 -7 54 -1 22 8 25 16
25 56 0 39 -5 50 -37 83 -21 20 -46 43 -56 50 -19 15 -127 38 -217 48 -52 5
-58 3 -88 -25z"/>
<path d="M2356 2183 c-3 -4 -16 -8 -28 -10 -12 -2 -29 -10 -38 -18 -9 -8 -21
-15 -27 -15 -13 0 -77 -95 -88 -130 -4 -14 -11 -29 -15 -35 -4 -5 -11 -24 -14
-42 -6 -27 -3 -34 23 -54 22 -16 28 -25 19 -31 -9 -5 -10 -8 -1 -8 6 0 18 7
26 15 12 11 20 12 46 2 46 -17 48 -37 3 -37 -20 0 -44 -4 -52 -10 -15 -10 -42
-120 -28 -120 4 0 8 -7 8 -15 0 -9 14 -22 31 -29 16 -7 39 -27 49 -44 15 -24
28 -32 64 -37 25 -4 46 -11 46 -16 0 -13 46 -1 103 27 26 13 47 20 47 16 0 -4
5 1 11 10 5 10 7 33 4 52 -7 33 -8 33 -33 21 -15 -8 -43 -17 -64 -20 -43 -8
-50 4 -43 75 2 25 4 49 4 54 1 4 16 6 34 3 56 -8 65 3 61 84 -2 39 -5 74 -9
77 -3 3 -5 19 -5 36 0 45 -19 106 -33 106 -7 0 -21 18 -31 40 -11 22 -25 40
-33 40 -7 0 -13 5 -13 10 0 12 -13 13 -24 3z"/>
<path d="M3485 2110 c-16 -17 -16 -20 -2 -20 9 0 28 5 44 11 22 8 24 12 13 19
-22 14 -35 12 -55 -10z"/>
<path d="M1917 1843 c-4 -3 -7 -10 -7 -14 0 -14 57 -68 75 -71 31 -5 27 18
-11 56 -37 37 -45 41 -57 29z"/>
<path d="M2500 1760 c0 -5 5 -10 10 -10 6 0 10 5 10 10 0 6 -4 10 -10 10 -5 0
-10 -4 -10 -10z"/>
<path d="M2212 1320 c-29 -15 -62 -30 -74 -33 -11 -3 -18 -12 -16 -19 5 -16
58 -24 58 -9 0 15 48 9 54 -6 7 -17 62 -17 68 0 7 17 -9 72 -24 85 -9 7 -28 2
-66 -18z"/>
<path d="M1954 1243 c-6 -2 -9 -15 -6 -28 4 -22 10 -25 48 -25 24 0 44 2 44 3
0 2 -8 13 -17 24 -19 20 -50 32 -69 26z"/>
<path d="M2159 1197 c-35 -38 -24 -53 56 -82 28 -10 55 -24 61 -32 6 -7 18
-13 26 -13 9 0 21 -7 28 -15 21 -26 102 -57 160 -61 30 -2 60 -6 67 -8 6 -3
19 2 30 9 24 18 11 40 -42 70 -22 12 -62 36 -89 54 -28 17 -55 31 -61 31 -7 0
-20 9 -30 20 -10 11 -27 20 -37 20 -10 0 -29 6 -41 14 -34 21 -105 17 -128 -7z"/>
<path d="M2280 1037 c0 -18 62 -67 84 -67 9 0 16 8 16 18 0 14 -28 33 -92 60
-5 2 -8 -3 -8 -11z"/>
<path d="M2404 908 c4 -24 11 -47 17 -52 5 -6 9 -18 9 -28 0 -10 6 -18 14 -18
8 0 16 -6 19 -12 3 -10 13 -9 42 5 37 18 38 18 16 33 -11 8 -21 20 -21 26 0
14 -77 88 -91 88 -8 0 -9 -14 -5 -42z"/>
<path d="M3710 505 c-26 -18 -47 -24 -80 -23 -25 1 -61 -4 -81 -11 -36 -12
-167 -28 -301 -38 -45 -3 -68 -1 -68 6 0 15 -103 14 -117 0 -17 -17 -281 -4
-432 20 -121 19 -160 -32 -90 -119 31 -38 43 -46 114 -73 22 -8 74 -28 115
-45 41 -17 91 -30 110 -30 19 0 72 -5 117 -11 45 -7 171 -13 280 -13 202 -2
315 10 360 38 12 8 29 14 38 14 9 0 18 7 21 15 4 8 12 15 19 15 7 0 15 7 18
14 3 8 24 20 46 26 24 6 41 17 41 25 0 8 6 15 14 15 23 0 31 20 31 77 0 46 -3
53 -29 69 -16 9 -37 25 -47 35 -24 24 -36 23 -79 -6z"/>
</g>
</svg>
